#!OML:ASF I:\Actors\actors\Patient Classification 2\Patient 1\Session 1\actor1.ASF
:FULLY-SPECIFIED
:DEGREES
160
root -0.65418 18.6514 4.88165 7.60884 5.10193 -3.04987
lowerback 23.0038 -0.26402 3.49174
upperback 3.33754 0.671718 1.45395
thorax -9.15049 0.230772 -0.602872
lowerneck -19.8949 -2.61538 -1.74682
upperneck 7.67175 -3.28561 1.88153
head 5.57064 -1.50659 0.539645
rclavicle 7.85199e-015 -2.78299e-015
rhumerus -35.4549 14.3627 -88.0621
rradius 119.753
rwrist 27.2637
rhand 0.363754 -58.5059
rfingers 7.12502
rthumb 25.9387 -86.7561
lclavicle 7.85199e-015 -2.78299e-015
lhumerus -17.2371 -28.4118 93.3868
lradius 111.921
lwrist -9.62256
lhand 14.3466 2.22023
lfingers 7.12502
lthumb 39.2363 27.6722
rfemur -6.64529 -3.85976 17.4673
rtibia 8.89295
rfoot -19.3129 -13.5723
rtoes -6.83333
lfemur -22.3872 -3.42064 -9.9525
ltibia 30.9713
lfoot -17.2581 5.4431
ltoes -56.5377
161
root -0.645517 18.6507 4.88774 7.60492 5.19002 -3.06426
lowerback 22.9628 -0.26044 3.51722
upperback 3.32583 0.683861 1.47971
thorax -9.1414 0.236239 -0.592601
lowerneck -20.088 -2.64131 -1.74927
upperneck 7.759 -3.31951 1.89511
head 5.62958 -1.5203 0.53831
rclavicle 1.15295e-014 7.95139e-016
rhumerus -35.1671 14.3329 -87.784
rradius 120.312
rwrist 27.2438
rhand 0.606075 -58.8271
rfingers 7.12502
rthumb 26.1708 -87.0431
lclavicle 1.15295e-014 7.95139e-016
lhumerus -16.2296 -28.6246 92.9995
lradius 112.362
lwrist -9.76281
lhand 14.782 2.74207
lfingers 7.12502
lthumb 39.6464 28.0738
rfemur -6.62222 -3.94926 17.458
rtibia 8.92606
rfoot -19.3227 -13.5725
rtoes -7.08064
lfemur -22.4318 -3.44721 -9.96879
ltibia 31.0593
lfoot -17.3044 5.38683
ltoes -56.584
162
root -0.637875 18.6488 4.89461 7.5932 5.26098 -3.11715
lowerback 22.9337 -0.255864 3.59787
upperback 3.30082 0.708649 1.47569
thorax -9.1518 0.244851 -0.650413
lowerneck -20.2999 -2.68178 -1.82485
upperneck 7.8624 -3.37402 2.06408
head 5.70134 -1.53341 0.595718
rclavicle -2.68359e-015 -1.39149e-015
rhumerus -34.9455 14.2501 -87.5887
rradius 120.897
rwrist 27.2643
rhand 0.870592 -58.9825
rfingers 7.12502
rthumb 26.424 -87.1608
lclavicle -2.68359e-015 -1.39149e-015
lhumerus -15.3714 -28.8582 92.5943
lradius 112.777
lwrist -9.87054
lhand 15.1464 3.05353
lfingers 7.12502
lthumb 39.9894 28.2828
rfemur -6.59834 -4.01507 17.496
rtibia 8.9634
rfoot -19.3495 -13.5373
rtoes -7.14269
lfemur -22.4698 -3.42994 -9.93622
ltibia 31.1662
lfoot -17.3491 5.30553
ltoes -56.6107
163
root -0.630071 18.645 4.9026 7.50221 5.29208 -3.17961
lowerback 23.0091 -0.23597 3.67434
upperback 3.28002 0.756827 1.46619
thorax -9.21213 0.263679 -0.719289
lowerneck -20.5526 -2.73179 -1.92891
upperneck 8.02555 -3.43529 2.2407
head 5.79961 -1.54917 0.658672
rclavicle 1.65985e-014 -1.21259e-014
rhumerus -34.7615 14.1833 -87.4477
rradius 121.463
rwrist 27.3574
rhand 1.11745 -59.1781
rfingers 7.12502
rthumb 26.6603 -87.3206
lclavicle 1.65985e-014 -1.21259e-014
lhumerus -14.6778 -29.064 92.2546
lradius 113.21
lwrist -10.0273
lhand 15.3168 3.16614
lfingers 7.12502
lthumb 40.1498 28.3468
rfemur -6.52028 -4.03573 17.5417
rtibia 9.07107
rfoot -19.3903 -13.4763
rtoes -7.23658
lfemur -22.4175 -3.31115 -9.90461
ltibia 31.2985
lfoot -17.3919 5.14385
ltoes -56.6346
164
root -0.622315 18.6401 4.91105 7.4778 5.36296 -3.21101
lowerback 22.9533 -0.223397 3.69412
upperback 3.26734 0.777777 1.48557
thorax -9.1958 0.273474 -0.715322
lowerneck -20.7258 -2.77274 -1.98748
upperneck 8.05445 -3.48019 2.30476
head 5.83912 -1.56602 0.681715
rclavicle 3.8763e-015 -9.14409e-015
rhumerus -34.4651 14.1526 -87.2629
rradius 121.967
rwrist 27.4524
rhand 1.3626 -59.3225
rfingers 7.12502
rthumb 26.8948 -87.4291
lclavicle 3.8763e-015 -9.14409e-015
lhumerus -14.0205 -29.2025 92.0087
lradius 113.69
lwrist -10.2191
lhand 15.5999 3.52675
lfingers 7.12502
lthumb 40.416 28.6259
rfemur -6.54973 -4.10373 17.5573
rtibia 9.26599
rfoot -19.4829 -13.394
rtoes -7.29783
lfemur -22.451 -3.31888 -9.8972
ltibia 31.4429
lfoot -17.4513 5.0639
ltoes -56.6966
165
root -0.614285 18.6354 4.91709 7.58767 5.44991 -3.19983
lowerback 22.7276 -0.213253 3.64716
upperback 3.2375 0.773094 1.52327
thorax -9.11027 0.274757 -0.644663
lowerneck -20.8173 -2.79806 -1.99915
upperneck 7.90886 -3.50103 2.26778
head 5.80634 -1.57969 0.669354
rclavicle -1.98785e-015 -1.98785e-016
rhumerus -34.1579 14.3146 -87.1561
rradius 122.429
rwrist 27.0225
rhand 1.0915 -59.9254
rfingers 7.12502
rthumb 26.6354 -88.0717
lclavicle -1.98785e-015 -1.98785e-016
lhumerus -13.3258 -29.2479 91.8525
lradius 114.029
lwrist -10.4548
lhand 16.0447 3.86825
lfingers 7.12502
lthumb 40.8341 28.8371
rfemur -6.77758 -4.20013 17.5311
rtibia 9.52957
rfoot -19.5581 -13.3556
rtoes -7.59823
lfemur -22.6454 -3.52529 -9.91648
ltibia 31.5854
lfoot -17.5566 5.14656
ltoes -56.6824
166
root -0.604074 18.6315 4.92339 7.69679 5.53718 -3.15177
lowerback 22.5608 -0.222572 3.60787
upperback 3.16929 0.746622 1.53351
thorax -9.09887 0.263396 -0.602337
lowerneck -20.8505 -2.80696 -2.01627
upperneck 7.75286 -3.50132 2.24528
head 5.76114 -1.58283 0.665417
rclavicle 2.33572e-014 3.04141e-014
rhumerus -34.077 14.8371 -87.3687
rradius 122.871
rwrist 25.7386
rhand -0.371062 -60.3753
rfingers 7.12502
rthumb 25.2349 -88.7266
lclavicle 2.33572e-014 3.04141e-014
lhumerus -12.6638 -29.2473 91.7438
lradius 114.225
lwrist -10.5722
lhand 16.3122 3.99419
lfingers 7.12502
lthumb 41.0854 28.8834
rfemur -7.01651 -4.30297 17.4581
rtibia 9.83057
rfoot -19.6233 -13.3426
rtoes -8.10532
lfemur -22.8374 -3.69073 -9.98323
ltibia 31.7158
lfoot -17.658 5.18294
ltoes -56.6275
167
root -0.594945 18.6279 4.9345 7.71917 5.67939 -3.14615
lowerback 22.4914 -0.261442 3.65101
upperback 3.09853 0.704923 1.52602
thorax -9.14129 0.240893 -0.622403
lowerneck -20.9347 -2.82802 -2.08395
upperneck 7.69763 -3.5198 2.33272
head 5.75981 -1.5863 0.701634
rclavicle -6.06293e-015 -9.34288e-015
rhumerus -33.8219 14.7536 -87.2545
rradius 123.517
rwrist 25.9607
rhand 2.71127 -61.5969
rfingers 7.12502
rthumb 28.1846 -89.498
lclavicle -6.06293e-015 -9.34288e-015
lhumerus -12.148 -29.308 91.6078
lradius 114.542
lwrist -10.4952
lhand 16.4729 4.18916
lfingers 7.12502
lthumb 41.2362 29.03
rfemur -7.11765 -4.44974 17.4386
rtibia 10.1213
rfoot -19.7698 -13.2414
rtoes -8.22314
lfemur -22.9208 -3.80219 -10.0005
ltibia 31.8237
lfoot -17.7221 5.09976
ltoes -56.5525
168
root -0.588955 18.6246 4.94868 7.66707 5.80799 -3.18358
lowerback 22.4706 -0.285537 3.70248
upperback 3.05608 0.68611 1.52066
thorax -9.17735 0.229276 -0.651916
lowerneck -21.1158 -2.86498 -2.15168
upperneck 7.67366 -3.56048 2.43919
head 5.78445 -1.59794 0.740376
rclavicle 1.10325e-014 -1.2921e-014
rhumerus -33.4484 14.6431 -87.0701
rradius 124.163
rwrist 26.1685
rhand 4.81836 -62.0843
rfingers 7.12502
rthumb 30.1967 -89.6358
lclavicle 1.10325e-014 -1.2921e-014
lhumerus -11.7262 -29.3882 91.4851
lradius 114.952
lwrist -10.4347
lhand 16.5157 4.16052
lfingers 7.12502
lthumb 41.2764 28.9884
rfemur -7.08973 -4.52574 17.4686
rtibia 10.3302
rfoot -19.9475 -13.1567
rtoes -8.13067
lfemur -22.8937 -3.83157 -9.97256
ltibia 31.9069
lfoot -17.7456 4.96577
ltoes -56.4937
169
root -0.584228 18.6215 4.96435 7.55753 5.91987 -3.19876
lowerback 22.4903 -0.30015 3.68849
upperback 3.03714 0.666313 1.52658
thorax -9.21001 0.219927 -0.631534
lowerneck -21.2706 -2.88555 -2.0889
upperneck 7.55067 -3.5884 2.35877
head 5.76652 -1.61556 0.700722
rclavicle 3.77691e-015 -2.26615e-014
rhumerus -33.1449 14.873 -87.0812
rradius 124.712
rwrist 25.7489
rhand 3.65553 -61.5201
rfingers 7.12502
rthumb 29.0868 -89.2689
lclavicle 3.77691e-015 -2.26615e-014
lhumerus -11.2725 -29.4077 91.3936
lradius 115.3
lwrist -10.414
lhand 16.3219 3.79141
lfingers 7.12502
lthumb 41.0944 28.6777
rfemur -6.9471 -4.56462 17.4701
rtibia 10.4382
rfoot -20.0948 -13.1438
rtoes -8.1359
lfemur -22.7818 -3.81054 -9.97882
ltibia 31.9757
lfoot -17.7627 4.81249
ltoes -56.5104
170
root -0.581548 18.618 4.98184 7.41233 5.99095 -3.231
lowerback 22.5065 -0.295746 3.59274
upperback 3.05267 0.655396 1.58413
thorax -9.20378 0.219485 -0.510456
lowerneck -21.4332 -2.91181 -2.08748
upperneck 7.40624 -3.60538 2.26865
head 5.74338 -1.63072 0.668928
rclavicle 4.96962e-015 1.31198e-014
rhumerus -32.7231 15.17 -87.04
rradius 125.272
rwrist 25.5347
rhand 2.81948 -60.9879
rfingers 7.12502
rthumb 28.288 -88.8719
lclavicle 4.96962e-015 1.31198e-014
lhumerus -10.7529 -29.3734 91.3019
lradius 115.581
lwrist -10.3361
lhand 16.2673 3.68077
lfingers 7.12502
lthumb 41.0432 28.5834
rfemur -6.74153 -4.55394 17.4867
rtibia 10.5048
rfoot -20.2472 -13.1322
rtoes -8.14956
lfemur -22.6078 -3.81975 -9.96046
ltibia 32.0401
lfoot -17.817 4.68263
ltoes -56.4721
171
root -0.582576 18.6146 4.9997 7.32808 6.02636 -3.27285
lowerback 22.427 -0.265421 3.43577
upperback 3.07511 0.65844 1.6427
thorax -9.13889 0.228602 -0.357368
lowerneck -21.6624 -2.95961 -2.24134
upperneck 7.32276 -3.63649 2.39658
head 5.7578 -1.63845 0.72904
rclavicle -2.88238e-015 4.17448e-015
rhumerus -32.086 15.325 -86.8215
rradius 125.881
rwrist 25.7577
rhand -0.919352 -59.1166
rfingers 7.12502
rthumb 24.7095 -87.5409
lclavicle -2.88238e-015 4.17448e-015
lhumerus -10.2369 -29.3092 91.1731
lradius 115.815
lwrist -10.3642
lhand 16.5401 3.74893
lfingers 7.12502
lthumb 41.2993 28.5694
rfemur -6.59927 -4.49582 17.5288
rtibia 10.5534
rfoot -20.3969 -13.1238
rtoes -8.22797
lfemur -22.4985 -3.74306 -9.92145
ltibia 32.1071
lfoot -17.8455 4.51379
ltoes -56.376
172
root -0.583117 18.6108 5.019 7.31846 6.12299 -3.30257
lowerback 22.2561 -0.25621 3.31727
upperback 3.05208 0.636567 1.66072
thorax -9.07531 0.223413 -0.263231
lowerneck -21.7522 -2.97426 -2.26048
upperneck 7.15217 -3.65476 2.47276
head 5.71901 -1.64161 0.754647
rclavicle -1.49089e-015 1.2921e-014
rhumerus -31.4407 15.4871 -86.6524
rradius 126.519
rwrist 25.8867
rhand -0.964237 -59.1331
rfingers 7.12502
rthumb 24.6665 -87.5634
lclavicle -1.49089e-015 1.2921e-014
lhumerus -9.81846 -29.2494 91.0448
lradius 116.019
lwrist -10.5765
lhand 16.8794 3.71753
lfingers 7.12502
lthumb 41.6177 28.4344
rfemur -6.52299 -4.48722 17.5677
rtibia 10.5867
rfoot -20.538 -13.1281
rtoes -8.19328
lfemur -22.4989 -3.63149 -9.88963
ltibia 32.1825
lfoot -17.8695 4.27817
ltoes -56.3147
173
root -0.580399 18.6062 5.03895 7.2835 6.26115 -3.36369
lowerback 22.1251 -0.277552 3.29768
upperback 3.01033 0.601654 1.68208
thorax -9.05292 0.208035 -0.218106
lowerneck -21.7792 -2.96828 -2.18104
upperneck 6.93556 -3.65479 2.40652
head 5.65052 -1.6456 0.721918
rclavicle 1.33186e-014 -1.17283e-014
rhumerus -30.678 15.6693 -86.4375
rradius 127.168
rwrist 25.8943
rhand 1.0681 -60.8368
rfingers 7.12502
rthumb 26.613 -88.9865
lclavicle 1.33186e-014 -1.17283e-014
lhumerus -9.42905 -29.2457 90.9426
lradius 116.189
lwrist -10.7661
lhand 16.9561 3.71409
lfingers 7.12502
lthumb 41.6896 28.4073
rfemur -6.43855 -4.50837 17.6331
rtibia 10.667
rfoot -20.7157 -13.099
rtoes -8.04601
lfemur -22.4804 -3.61331 -9.82412
ltibia 32.2586
lfoot -17.9312 4.07953
ltoes -56.2779
174
root -0.574838 18.6013 5.056 7.20089 6.38472 -3.39132
lowerback 22.1155 -0.30446 3.32062
upperback 2.96753 0.57173 1.66665
thorax -9.09567 0.192015 -0.239153
lowerneck -21.9771 -3.00513 -2.20843
upperneck 6.86825 -3.69425 2.43838
head 5.66101 -1.66155 0.730492
rclavicle -4.57205e-015 -3.57812e-015
rhumerus -29.8163 15.6223 -86.1877
rradius 127.948
rwrist 25.9786
rhand 2.61861 -61.8286
rfingers 7.12502
rthumb 28.0961 -89.7442
lclavicle -4.57205e-015 -3.57812e-015
lhumerus -9.02079 -29.3171 90.8312
lradius 116.29
lwrist -10.892
lhand 16.7404 3.62974
lfingers 7.12502
lthumb 41.4873 28.3892
rfemur -6.33431 -4.55331 17.6482
rtibia 10.8024
rfoot -20.8842 -13.0287
rtoes -8.02103
lfemur -22.3932 -3.75811 -9.80305
ltibia 32.3239
lfoot -18.0322 4.09191
ltoes -56.3436
